<?xml version="1.0" standalone="no"?>
<!DOCTYPE svg PUBLIC "-//W3C//DTD SVG 1.1//EN" "http://www.w3.org/Graphics/SVG/1.1/DTD/svg11.dtd" >
<svg xmlns="http://www.w3.org/2000/svg">
<metadata>Generated by IcoMoon</metadata>
<defs>
<font id="kap-icon" horiz-adv-x="1024">
<font-face units-per-em="1024" ascent="960" descent="-64" />
<missing-glyph horiz-adv-x="1024" />
<glyph unicode="&#x20;" horiz-adv-x="512" d="" />
<glyph unicode="&#xe900;" glyph-name="analysis" d="M152 480c24.192 0 46.112 9.728 62.304 25.312l88.8-44.416c-0.448-3.616-1.088-7.168-1.088-10.912 0-49.632 40.384-90.016 90.016-90.016s90.016 40.384 90.016 90.016c0 13.856-3.392 26.816-9.024 38.56l120.48 120.48c11.744-5.632 24.704-9.024 38.56-9.024 49.632 0 90.016 40.384 90.016 90.016 0 9.344-1.856 18.176-4.512 26.656l104.672 78.496c14.272-9.536 31.36-15.136 49.824-15.136 49.632 0 90.016 40.384 90.016 90.016s-40.448 89.952-90.080 89.952-90.016-40.384-90.016-90.016c0-9.344 1.856-18.176 4.512-26.656l-104.672-78.496c-14.304 9.568-31.392 15.168-49.824 15.168-49.632 0-90.016-40.384-90.016-90.016 0-13.856 3.392-26.816 9.024-38.56l-120.48-120.48c-11.744 5.632-24.704 9.024-38.56 9.024-24.192 0-46.112-9.728-62.304-25.312l-88.8 44.416c0.448 3.616 1.088 7.168 1.088 10.912 0 49.632-40.384 90.016-90.016 90.016s-90.016-40.384-90.016-90.016 40.448-89.984 90.080-89.984zM994.016-4h-32v633.984c0 16.576-13.44 30.016-30.016 30.016h-120c-16.576 0-30.016-13.408-30.016-30.016v-634.016h-60v454.016c0 16.576-13.44 30.016-30.016 30.016h-120c-16.576 0-30.016-13.408-30.016-30.016v-454.016h-60v214.016c0 16.576-13.408 30.016-30.016 30.016h-120c-16.576 0-30.016-13.44-30.016-30.016v-214.016h-59.904v334.016c0 16.576-13.408 30.016-30.016 30.016h-120c-16.576 0-30.016-13.44-30.016-30.016v-334.016h-32c-16.576 0.032-29.984-13.408-29.984-29.984s13.408-29.984 30.016-29.984h964c16.544 0 29.984 13.44 29.984 29.984s-13.44 30.016-29.984 30.016z" />
<glyph unicode="&#xe901;" glyph-name="arrow-down" d="M552.64 244.064c0.064 0.096 0.128 0.192 0.256 0.288l326.304 326.272c22.432 22.464 22.432 58.816 0 81.28s-58.816 22.464-81.248 0l-285.952-285.92-285.888 285.92c-22.432 22.464-58.816 22.464-81.28 0-22.432-22.464-22.432-58.848 0-81.28l326.496-326.496c22.496-22.496 58.784-22.496 81.312-0.064z" />
<glyph unicode="&#xe902;" glyph-name="arrow-next" d="M715.872 488.672l-326.496 326.496c-22.432 22.432-58.816 22.432-81.28 0-22.464-22.464-22.464-58.848 0-81.28l285.92-285.888-285.92-285.92c-22.464-22.432-22.464-58.816 0-81.28 22.464-22.432 58.816-22.432 81.28 0l326.272 326.336c0.096 0.096 0.192 0.16 0.288 0.256 22.432 22.464 22.432 58.784-0.064 81.28z" />
<glyph unicode="&#xe903;" glyph-name="arrow-prev" d="M308.096 488.672l326.528 326.496c22.432 22.432 58.816 22.432 81.248 0 22.464-22.464 22.464-58.816 0-81.28l-285.888-285.888 285.92-285.92c22.432-22.432 22.432-58.816 0-81.28-22.464-22.432-58.816-22.432-81.28 0l-326.304 326.368c-0.096 0.096-0.192 0.16-0.256 0.256-22.4 22.432-22.4 58.784 0.032 81.248z" />
<glyph unicode="&#xe904;" glyph-name="arrow-up" d="M471.328 651.872l-326.496-326.496c-22.432-22.432-22.432-58.816 0-81.28 22.464-22.464 58.848-22.464 81.28 0l285.888 285.888 285.952-285.92c22.432-22.464 58.816-22.464 81.248 0s22.432 58.816 0 81.28l-326.336 326.304c-0.128 0.096-0.192 0.192-0.256 0.288-22.496 22.432-58.784 22.432-81.28-0.064z" />
<glyph unicode="&#xe905;" glyph-name="calculator" d="M861.088 960h-698.176c-25.728 0-46.56-20.832-46.56-46.56v-930.88c0-25.728 20.864-46.56 46.56-46.56h698.176c25.728 0 46.528 20.832 46.528 46.56v930.88c0 25.728-20.8 46.56-46.528 46.56zM814.528 866.912v-139.648h-605.088v139.648h605.088zM209.44 29.056v605.12h605.088v-605.088l-605.088-0.032zM375.872 593.024h-96.64c-12.832 0-23.232-10.432-23.232-23.264v-96.704c0-12.832 10.432-23.264 23.264-23.264h96.64c12.832 0 23.264 10.432 23.264 23.264v96.704c0 12.864-10.4 23.264-23.296 23.264zM560.288 593.024h-96.608c-12.864 0-23.296-10.432-23.296-23.264v-96.704c0-12.832 10.432-23.264 23.296-23.264h96.608c12.832 0 23.296 10.432 23.296 23.264v96.704c-0.032 12.864-10.464 23.264-23.296 23.264zM744.672 593.024h-96.608c-12.864 0-23.264-10.432-23.264-23.264v-96.704c0-12.832 10.4-23.264 23.264-23.264h96.608c12.864 0 23.296 10.432 23.296 23.264v96.704c0 12.864-10.4 23.264-23.296 23.264zM375.872 403.232h-96.64c-12.832 0-23.232-10.432-23.232-23.232v-96.704c0-12.832 10.432-23.264 23.264-23.264h96.64c12.832 0 23.264 10.432 23.264 23.264v96.704c0 12.832-10.4 23.232-23.296 23.232zM560.288 403.232h-96.608c-12.864 0-23.296-10.4-23.296-23.232v-96.704c0-12.832 10.432-23.264 23.296-23.264h96.608c12.832 0 23.296 10.432 23.296 23.264v96.704c-0.032 12.832-10.464 23.232-23.296 23.232zM375.872 213.44h-96.64c-12.832 0-23.232-10.4-23.232-23.232v-96.672c0-12.896 10.432-23.296 23.264-23.296h96.64c12.832 0 23.264 10.432 23.264 23.296v96.672c0 12.864-10.4 23.232-23.296 23.232zM560.288 213.44h-96.608c-12.864 0-23.296-10.4-23.296-23.232v-96.672c0-12.896 10.432-23.296 23.296-23.296h96.608c12.832 0 23.296 10.432 23.296 23.296v96.672c-0.032 12.864-10.464 23.232-23.296 23.232zM744.672 403.232h-96.608c-12.864 0-23.264-10.4-23.264-23.232v-286.464c0-12.896 10.4-23.296 23.264-23.296h96.608c12.864 0 23.296 10.432 23.296 23.296v286.464c0 12.832-10.4 23.232-23.296 23.232z" />
<glyph unicode="&#xe906;" glyph-name="calendar" d="M896 896h-128v41.024c0 12.672-10.24 22.944-23.008 22.976h-18.016c-12.608 0-22.976-10.272-22.976-22.976v-41.024h-384v36.992c0 14.912-12.096 27.008-27.040 27.008h-9.92c-14.944 0-27.040-12.096-27.040-27.008v-36.992h-128c-70.688 0-128-57.312-128-128v-704c0-70.688 57.312-128 128-128h768c70.688 0 128 57.312 128 128v704c0 70.688-57.312 128-128 128zM960 64c0-35.36-28.64-64-64-64h-768c-35.328 0-64 28.64-64 64v576h896v-576zM960 704h-896v64c0 35.264 28.704 64 64 64h128v-36.992c0-14.912 12.096-27.008 27.040-27.008h9.952c14.912 0 27.008 12.096 27.008 27.008v36.992h384v-41.024c0-12.672 10.24-22.944 23.008-22.976h18.016c12.608 0 22.976 10.272 22.976 22.976v41.024h128c35.36 0 64-28.672 64-64v-64zM192 512h128v-128h-128v128zM448 512h128v-128h-128v128zM704 512h128v-128h-128v128zM192 256h128v-128h-128v128zM448 256h128v-128h-128v128zM704 256h128v-128h-128v128z" />
<glyph unicode="&#xe907;" glyph-name="card" d="M0 960h448v-448h-448v448zM576 960h448v-448h-448v448zM0 384h448v-448h-448v448zM576 384h448v-448h-448v448z" />
<glyph unicode="&#xe908;" glyph-name="cart" d="M486.816 110.912c0-68.554-55.574-124.128-124.128-124.128s-124.128 55.574-124.128 124.128c0 68.554 55.574 124.128 124.128 124.128s124.128-55.574 124.128-124.128zM760.352 236.224v0c-68.896 6.816-130.208-43.552-136.992-112.448s43.552-130.176 112.48-136.992c8.128-0.768 16.384-0.768 24.544 0 68.864 6.816 119.232 68.128 112.448 136.992-5.888 59.52-52.992 106.592-112.48 112.448zM220.512 723.040l-34.944 159.040c-3.872 16.192-18.304 27.648-34.944 27.744h-150.624v-72.288h121.696l112.064-514.56c2.944-16.864 17.76-29.152 34.944-28.864h630.208c16.672 0.064 31.072 11.488 34.976 27.68l89.12 356.672c2.624 10.624-0.064 21.856-7.2 30.112-6.176 9.248-16.64 14.688-27.744 14.464h-767.552z" />
<glyph unicode="&#xe909;" glyph-name="change" d="M1024 184.64l-213.184 213.312v-169.376h-20.864c-136.32 0-204.928 112.32-284.384 242.304-81.44 133.312-173.76 284.32-359.328 284.32h-146.24v-87.744h146.24c136.384 0 204.992-112.32 284.384-242.304 81.504-133.248 173.76-284.384 359.328-284.384h20.864v-169.376l213.184 213.248zM1024 711.328l-213.184 213.312v-169.44h-20.864c-133.44 0-218.624-78.112-286.24-171.552 18.048-27.2 34.816-54.496 50.752-80.512 62.048 93.888 127.552 164.32 235.488 164.32h20.864v-169.376l213.184 213.248zM381.76 392.864c-62.016-93.888-127.488-164.32-235.488-164.32h-146.272v-87.808h146.24c133.504 0 218.688 78.112 286.304 171.616-18.112 27.136-34.848 54.528-50.784 80.512z" />
<glyph unicode="&#xe90a;" glyph-name="chart_view" d="M592 960c-238.592 0-432-193.408-432-432 0-96.192 31.84-184.736 84.992-256.544l-226.24-226.208c-24.992-24.992-24.992-65.536 0-90.528 24.992-24.96 65.504-24.96 90.496 0l226.272 226.208c71.776-53.12 160.32-84.928 256.48-84.928 238.592 0 432 193.408 432 432s-193.408 432-432 432zM592 192c-185.568 0-336 150.432-336 336s150.432 336 336 336c185.568 0 336-150.432 336-336s-150.432-336-336-336zM384 608h96v-256h-96v256zM544 768h96v-416h-96v416zM704 672h96v-320h-96v320z" />
<glyph unicode="&#xe90b;" glyph-name="check" d="M822.72 625.632l-44.32 44.352c-12.256 12.288-32.16 12.288-44.416 0l-288.544-288.608-155.424 155.36c-12.192 12.256-32 12.32-44.224 0.16-0.064-0.064-0.128-0.096-0.128-0.16l-44.448-44.416c-12.224-12.16-12.288-31.968-0.128-44.224 0.032-0.064 0.096-0.064 0.128-0.128l222.016-221.92c12.16-12.256 31.968-12.384 44.224-0.256 0.064 0.064 0.128 0.128 0.192 0.256l355.072 355.168c12.256 12.128 12.384 31.936 0.256 44.192-0.128 0.096-0.128 0.16-0.256 0.224z" />
<glyph unicode="&#xe90c;" glyph-name="check-circle" d="M512 960c-282.784 0-512-229.216-512-512 0-282.752 229.216-512 512-512 282.752 0 512 229.248 512 512 0 282.784-229.248 512-512 512zM823.008 544.672l-343.712-343.68c-11.776-11.872-30.944-12-42.816-0.256-0.064 0.064-0.128 0.128-0.192 0.256l-214.912 214.816c-11.84 11.776-11.904 30.944-0.128 42.816 0.032 0.032 0.096 0.096 0.128 0.128l43.040 43.008c11.744 11.872 30.912 11.936 42.784 0.16 0.032-0.064 0.096-0.096 0.128-0.16l150.432-150.432 279.328 279.392c11.872 11.904 31.136 11.904 43.008 0l42.88-42.944c11.936-11.808 12-31.008 0.256-42.912-0.096-0.064-0.096-0.128-0.224-0.192z" />
<glyph unicode="&#xe90d;" glyph-name="chrome" d="M123.648 781.568l161.856-281.472c15.168 66.528 58.336 123.296 118.464 155.584 49.952 26.24 96.064 24.64 167.52 24.64h396.384c-164.864 323.68-606.272 378.336-844.224 101.248zM511.872 618.208c-93.952-0.096-170.080-76.224-170.144-170.208 0-94.016 76.192-170.144 170.144-170.272 94.016 1.888 168.736 79.488 166.88 173.536-1.76 91.456-75.424 165.152-166.88 166.944zM309.376 333.888c-46.72 80.64-170.208 295.776-226.272 393.632-196.64-301.28-27.232-712 329.632-782.016l165.152 279.616c-95.52-28.384-207.392 3.008-268.512 108.768zM994.496 618.336l-324.608-0.064c79.264-73.952 97.056-192.768 43.008-286.656-77.248-131.872-154.88-263.36-232.992-394.624 367.712-22.752 635.712 337.76 514.592 681.344z" />
<glyph unicode="&#xe90e;" glyph-name="close" d="M602.496 448l203.648 203.648c12.512 12.512 12.512 32.768 0 45.28l-45.248 45.248c-12.512 12.512-32.736 12.512-45.248 0l-203.648-203.68-203.648 203.648c-12.512 12.512-32.768 12.512-45.28 0l-45.216-45.248c-12.512-12.512-12.512-32.736 0-45.248l203.616-203.648-203.648-203.648c-12.512-12.512-12.512-32.736 0-45.248l45.248-45.248c12.48-12.512 32.736-12.512 45.28 0l203.648 203.616 203.648-203.648c12.512-12.512 32.736-12.512 45.248 0.032l45.248 45.216c12.512 12.512 12.512 32.736 0 45.28l-203.648 203.648z" />
<glyph unicode="&#xe90f;" glyph-name="compare" d="M358.912 345.6h-358.912v-102.4h358.912v-153.6l204.288 204.8-204.288 204.8zM665.056 652.8v153.6l-204.288-204.8 204.288-204.832v153.632h358.944v102.4z" />
<glyph unicode="&#xe910;" glyph-name="comparison" d="M1024 721.984v238.016h-240v-80h107.424l-366.432-366.432-279.328 279.328-165.664-173.472v340.576h-80v-1024h1024v80h-944v252l154.464 162.464 160.288-160.288 130.24 130.24 208.992-208.992 210.016 210.016v-97.44h80v238.016h-240v-80h107.424l-157.44-157.44-152.448 152.448 362.464 362.4v-97.44h80zM394.752 383.328l-161.728 161.728-153.024-160.928v119.488l166.976 174.816 221.44-221.44-73.664-73.664z" />
<glyph unicode="&#xe911;" glyph-name="cursor" d="M1013.952 93.952l-203.776 203.776 145.376 83.968c11.328 6.56 17.984 19.040 17.024 32.128s-9.28 24.48-21.472 29.344l-648.32 258.592c-12.704 5.056-27.232 2.080-36.896-7.584-9.696-9.696-12.672-24.192-7.584-36.896l258.56-648.352c4.864-12.192 16.256-20.544 29.344-21.472 13.056-0.96 25.536 5.664 32.096 17.024l83.968 145.376 203.776-203.776c6.4-6.432 15.136-10.048 24.224-10.048 9.056 0 17.792 3.616 24.224 10.048l99.424 99.424c13.408 13.376 13.408 35.072 0.032 48.448zM890.272 18.688l-211.136 211.136c-6.464 6.464-15.2 10.016-24.192 10.016-1.504 0-3.008-0.096-4.48-0.288-10.56-1.408-19.872-7.616-25.184-16.832l-70.976-122.88-202.912 508.768 508.736-202.912-122.912-71.008c-9.216-5.312-15.424-14.624-16.8-25.184-1.408-10.528 2.176-21.12 9.728-28.672l211.136-211.168-51.008-50.976zM150.368 858.112c-13.376 13.344-35.040 13.344-48.448 0-13.376-13.376-13.376-35.072 0-48.448l76.096-76.096c6.688-6.656 15.456-9.984 24.224-9.984s17.504 3.328 24.224 10.016c13.344 13.376 13.344 35.072 0 48.448l-76.096 76.064zM176.128 621.376c0 18.912-15.328 34.24-34.24 34.24h-107.584c-18.912 0-34.24-15.328-34.24-34.24s15.328-34.24 34.24-34.24h107.584c18.912 0 34.24 15.36 34.24 34.24zM162.272 515.712l-76.096-76.096c-13.376-13.376-13.376-35.040 0-48.416 6.688-6.688 15.424-10.016 24.192-10.016s17.536 3.328 24.224 10.016l76.096 76.064c13.376 13.376 13.376 35.072 0 48.448-13.344 13.344-35.040 13.344-48.416 0zM338.656 783.904c18.912 0 34.24 15.328 34.24 34.24v107.616c0 18.912-15.328 34.24-34.24 34.24s-34.24-15.328-34.24-34.24v-107.616c0-18.88 15.328-34.24 34.24-34.24zM468.544 739.328c8.768 0 17.536 3.328 24.224 10.016l76.096 76.096c13.376 13.376 13.376 35.072 0 48.416-13.376 13.376-35.072 13.376-48.416 0l-76.096-76.064c-13.376-13.376-13.376-35.072 0-48.448 6.656-6.688 15.424-10.016 24.192-10.016z" />
<glyph unicode="&#xe912;" glyph-name="disk" d="M1010.688 677.344c-8.928 21.344-19.552 38.208-32.064 50.656l-186.624 186.688c-12.448 12.448-29.312 23.104-50.688 32-21.312 8.896-40.864 13.312-58.624 13.312h-618.688c-17.76 0-32.896-6.208-45.344-18.656s-18.656-27.552-18.656-45.344v-896c0-17.792 6.208-32.864 18.656-45.312s27.584-18.688 45.344-18.688h896c17.824 0 32.864 6.24 45.376 18.688 12.384 12.448 18.624 27.52 18.624 45.312v618.688c0 17.792-4.448 37.312-13.312 58.656zM490.656 853.344c0 5.792 2.112 10.752 6.336 15.008 4.224 4.224 9.216 6.304 15.008 6.304h64c5.76 0 10.752-2.080 15.008-6.304s6.304-9.216 6.304-15.008v-213.344c0-5.792-2.112-10.784-6.304-15.008-4.256-4.192-9.248-6.304-15.008-6.304h-64c-5.792 0-10.784 2.112-15.008 6.336s-6.336 9.216-6.336 15.008v213.312zM768 21.344h-512v256h512v-256zM938.688 21.344h-85.376v277.344c0 17.792-6.176 32.864-18.624 45.344-12.448 12.448-27.552 18.656-45.376 18.656h-554.656c-17.792 0-32.896-6.208-45.344-18.656s-18.656-27.552-18.656-45.344v-277.344h-85.312v853.344h85.344v-277.344c0-17.792 6.208-32.864 18.656-45.344 12.448-12.448 27.552-18.656 45.344-18.656h384c17.76 0 32.864 6.208 45.312 18.656s18.688 27.552 18.688 45.344v277.344c6.624 0 15.328-2.208 26.016-6.656s18.176-8.896 22.624-13.344l187.36-187.328c4.448-4.448 8.864-12.128 13.312-23.008 4.512-10.912 6.688-19.456 6.688-25.664v-597.344z" />
<glyph unicode="&#xe913;" glyph-name="document-check" d="M781.536 417.056v460.48h-699.072v-859.072h316.128c22.656 0 41.248-18.528 41.248-41.216s-18.56-41.248-41.248-41.248h-357.344c-22.688 0-41.248 18.56-41.248 41.248v941.504c0 22.688 18.56 41.248 41.248 41.248h781.504c22.688 0 41.248-18.56 41.248-41.248v-501.696c0-22.688-18.56-41.216-41.248-41.216s-41.216 18.528-41.216 41.216zM630.816 719.456h-371.136c-22.656 0-41.248-18.56-41.248-41.216 0-22.688 18.56-41.248 41.248-41.248h371.136c22.624 0 41.184 18.56 41.184 41.248 0 22.656-18.56 41.216-41.184 41.216zM672 451.424c0 22.688-18.56 41.248-41.184 41.248h-371.136c-22.656 0-41.248-18.56-41.248-41.248s18.56-41.248 41.248-41.248h371.136c22.624 0 41.184 18.56 41.184 41.248zM259.68 272.736c-22.656 0-41.248-18.56-41.248-41.248 0-22.656 18.56-41.216 41.248-41.216h109.984c22.656 0 41.248 18.56 41.248 41.216 0 22.688-18.56 41.248-41.248 41.248h-109.984zM1010.176 292c-17.152 15.136-43.296 13.76-58.368-3.424l-226.112-251.552-113.408 109.312c0.544-0.512-26.976 31.36-58.4-1.376-15.808-16.512-15.136-42.624 1.376-58.432l144.32-138.816c7.552-7.552 17.888-11.68 28.864-11.68 0.672 0 0.672 0 1.376 0 11.008 0.672 22.016 5.504 28.864 13.76l254.24 283.136c15.808 17.824 14.432 43.936-2.752 59.072z" />
<glyph unicode="&#xe914;" glyph-name="document-list" d="M608 736c0-17.664-14.304-32-32-32h-288c-17.664 0-32 14.336-32 32v0c0 17.664 14.336 32 32 32h288c17.696 0 32-14.336 32-32v0zM672 960h-608c-35.328 0-64-28.64-64-64v-896c0-35.328 28.672-64 64-64h608c35.328 0 64 28.672 64 64v896c0 35.36-28.672 64-64 64zM672 32c0-17.664-14.304-32-32-32h-544c-17.664 0-32 14.336-32 32v832c0 17.696 14.336 32 32 32h544c17.696 0 32-14.304 32-32v-832zM192 736c0-17.664-14.336-32-32-32v0c-17.664 0-32 14.336-32 32v0c0 17.664 14.336 32 32 32v0c17.664 0 32-14.336 32-32v0zM608 544c0-17.664-14.304-32-32-32h-288c-17.664 0-32 14.336-32 32v0c0 17.664 14.336 32 32 32h288c17.696 0 32-14.336 32-32v0zM192 544c0-17.664-14.336-32-32-32v0c-17.664 0-32 14.336-32 32v0c0 17.664 14.336 32 32 32v0c17.664 0 32-14.336 32-32v0zM608 352c0-17.696-14.304-32-32-32h-288c-17.664 0-32 14.304-32 32v0c0 17.696 14.336 32 32 32h288c17.696 0 32-14.304 32-32v0zM192 352c0-17.696-14.336-32-32-32v0c-17.664 0-32 14.304-32 32v0c0 17.696 14.336 32 32 32v0c17.664 0 32-14.304 32-32v0zM608 160c0-17.696-14.304-32-32-32h-288c-17.664 0-32 14.304-32 32v0c0 17.696 14.336 32 32 32h288c17.696 0 32-14.304 32-32v0zM192 160c0-17.696-14.336-32-32-32v0c-17.664 0-32 14.304-32 32v0c0 17.696 14.336 32 32 32v0c17.664 0 32-14.304 32-32v0zM960 704h-96c-35.328 0-64-28.672-64-64v-544l112-160 112 160v544c0 35.328-28.672 64-64 64zM912 48l-48 68.576h96l-48-68.576zM960 148.576h-96v395.424h96v-395.424zM960 576h-96v32c0 17.664 14.304 32 32 32h32c17.696 0 32-14.336 32-32v-32z" />
<glyph unicode="&#xe915;" glyph-name="document-view" d="M192.576 704h192v-64h-192v64zM192.576 576h384v-64h-384v64zM192.576 448h384v-64h-384v64zM192.576 320h320v-64h-320v64zM192.576 192h192v-64h-192v64zM64.576 896h448v-256h255.808l-0.32-128h64l0.512 192-264 256h-568v-1024h512v64h-448v896zM576.576 863.104l164.096-159.104h-164.128v159.104h0.032zM1015.2-9.376l-90.4 90.368c22.304 31.36 35.744 69.632 35.744 111.008 0 106.016-86.016 192-192 192-106.016 0-192-86.016-192-192s86.016-192 192-192c39.808 0.064 78.624 12.576 111.008 35.744l90.368-90.368c13.12-11.808 33.376-10.752 45.248 2.432 11.008 12.192 11.008 30.688 0.032 42.816zM768.576 64c-70.752 0-128 57.376-128 128.064s57.376 128.064 128.064 128v0c70.688 0 128.064-57.312 128-128.064s-57.312-128-128.064-128z" />
<glyph unicode="&#xe916;" glyph-name="dotted" d="M256 448c0-70.692-57.308-128-128-128s-128 57.308-128 128c0 70.692 57.308 128 128 128s128-57.308 128-128zM640 448c0-70.692-57.308-128-128-128s-128 57.308-128 128c0 70.692 57.308 128 128 128s128-57.308 128-128zM1024 448c0-70.692-57.308-128-128-128s-128 57.308-128 128c0 70.692 57.308 128 128 128s128-57.308 128-128z" />
<glyph unicode="&#xe917;" glyph-name="down" d="M167.776 724.672h688.672c6.816-0.064 13.504-1.888 19.456-5.312 19.168-10.944 25.792-35.328 14.784-54.432l-344.32-473.792c-3.488-5.984-8.512-11.008-14.528-14.496-18.944-11.008-43.232-4.512-54.208 14.496l-344.32 473.696c-7.072 12.416-7.072 27.552 0 39.904 7.136 12.32 20.192 19.936 34.464 19.936z" />
<glyph unicode="&#xe918;" glyph-name="download" d="M768 640h-128v320h-256v-320h-128l256.064-320 255.936 320zM896 256v-192h-768v192h-128v-256c0-35.36 28.672-64 64-64h896c35.36 0 64 28.64 64 64v256h-128z" />
<glyph unicode="&#xe919;" glyph-name="edit" d="M137.92-64c-75.968 0.096-137.824 61.952-137.92 137.888v630.112c0.096 75.968 61.952 137.856 137.888 137.952h226.752c19.712 0 35.744-16.064 35.744-35.776s-16.032-35.744-35.744-35.744h-226.72c-36.576-0.064-66.368-29.856-66.4-66.432v-630.080c0.032-36.576 29.824-66.336 66.368-66.368h678.24c36.544 0.032 66.336 29.824 66.368 66.368v226.752c0 19.712 16.032 35.744 35.744 35.744 19.744 0 35.776-16.032 35.776-35.744v-226.784c-0.064-75.936-61.952-137.792-137.92-137.888h-678.176zM960.416 926.336c-44.864 44.864-117.632 44.864-162.496 0l-455.584-455.584c-3.136-3.104-5.376-6.976-6.56-11.232l-59.904-216.288c-2.464-8.896 0.032-18.368 6.528-24.896 6.528-6.496 16.032-8.992 24.896-6.56l216.288 59.936c4.224 1.184 8.096 3.424 11.264 6.56l455.52 455.616c44.8 44.864 44.8 117.6 0 162.496l-29.952 29.952zM397.984 454.144l372.832 372.896 120.256-120.256-372.864-372.864-120.224 120.224zM373.952 405.952l96.096-96.064-132.896-36.8 36.8 132.864zM954.272 769.984l-27.072-27.104-120.288 120.288 27.104 27.104c24.928 24.896 65.312 24.896 90.24 0l30.016-30.016c24.896-24.928 24.896-65.312 0-90.272z" />
<glyph unicode="&#xe91a;" glyph-name="email" d="M934.016 837.984h-844.032c-49.536 0-89.984-40.384-89.984-89.984v-600c0-49.44 40.256-90.016 89.984-90.016h844c49.44 0 90.016 40.288 90.016 90.016v600c0 49.44-40.288 89.984-89.984 89.984zM921.568 777.984l-407.648-407.648-411.2 407.648h818.848zM60 160.448v575.424l288.96-286.464-288.96-288.96zM102.432 117.984l289.12 289.12 101.312-100.448c11.744-11.616 30.656-11.584 42.336 0.128l98.816 98.752 287.552-287.552h-819.136zM964 160.448l-287.552 287.552 287.552 287.552v-575.104z" />
<glyph unicode="&#xe91b;" glyph-name="error" d="M512 960c-282.784 0-512-229.216-512-512 0-282.752 229.216-512 512-512 282.752 0 512 229.248 512 512 0 282.784-229.248 512-512 512zM511.936 0c-247.456 0-448.032 200.64-448 448.128 0.032 247.456 200.672 448.032 448.128 448v0c247.424-0.032 448.064-200.672 448-448.128-0.064-247.488-200.704-448-448.128-448zM576 640c0-35.346-28.654-64-64-64s-64 28.654-64 64c0 35.346 28.654 64 64 64s64-28.654 64-64zM512 512c-35.328 0-64-28.672-64-64v-192c0-35.36 28.672-64 64-64 35.36 0 64 28.64 64 64v192.064c0 35.296-28.64 63.936-63.936 63.936-0.032 0-0.032 0-0.064 0z" />
<glyph unicode="&#xe91c;" glyph-name="event" d="M160 512h128v-128h-128v128zM384 512h128v-128h-128v128zM160 256h128v-128h-128v128zM896 896h-128v41.024c0 12.672-10.24 22.944-23.008 22.976h-18.016c-12.608 0-22.976-10.272-22.976-22.976v-41.024h-384v36.992c0 14.912-12.096 27.008-27.040 27.008h-9.92c-14.944 0-27.040-12.096-27.040-27.008v-36.992h-128c-70.688 0-128-57.312-128-128v-704c0-70.688 57.312-128 128-128h384v64h-384c-35.328 0-64 28.64-64 64v576h896v-192h64v320c0 70.688-57.312 128-128 128zM960 704h-896v64c0 35.264 28.704 64 64 64h128v-36.992c0-14.912 12.096-27.008 27.040-27.008h9.952c14.912 0 27.008 12.096 27.008 27.008v36.992h384v-41.024c0-12.672 10.24-22.944 23.008-22.976h18.016c12.608 0 22.976 10.272 22.976 22.976v41.024h128c35.36 0 64-28.672 64-64v-64zM800 320h-64v-192h128v64h-64zM768 448c-141.376 0-256-114.624-256-256s114.624-256 256-256 256 114.624 256 256-114.624 256-256 256zM768 0c-106.016 0-192 85.984-192 192s85.984 192 192 192 192-85.984 192-192-85.984-192-192-192z" />
<glyph unicode="&#xe91d;" glyph-name="excel" d="M704 960h-640v-1024h896v768l-256 256zM704 864l160-160h-160v160zM896 0h-768v896h512v-256h256v-640zM640 576l-128-149.312-128 149.312h-128l192-224-192-224h128l128 149.312 128-149.312h128l-192 224 192 224h-128z" />
<glyph unicode="&#xe91e;" glyph-name="first" d="M769.12 826.688c-6.112 3.52-18.368 5.312-25.312 5.312-7.808 0-15.552-1.856-22.688-5.312l-401.12-289.536v270.848c0 13.248-10.752 24-24 24h-48c-13.248 0-24-10.752-24-24v-720c0-13.248 10.752-24 24-24h48c13.248 0 24 10.752 24 24v270.88l398.496-289.504c12.32-7.008 38.368-7.008 50.624 0 12.384 7.008 30.88 20.128 30.88 34.304v688.64c0 14.208-18.496 27.264-30.88 34.368z" />
<glyph unicode="&#xe91f;" glyph-name="folder" d="M910.624 809.984c-145.184 0-290.368 0-435.552 0-33.056 33.28-66.112 66.56-99.2 99.808-31.936 32.16-75.328 50.208-120.608 50.208-47.296 0-94.592 0-141.888 0-62.624 0-113.376-50.752-113.376-113.376 0-265.728 0-531.488 0-797.248 0-62.624 50.752-113.376 113.376-113.376 265.728 0 531.488 0 797.248 0 62.624 0 113.376 50.752 113.376 113.376 0 215.744 0 431.488 0 647.232 0 62.624-50.752 113.376-113.376 113.376zM910.624-4c-265.76 0-531.488 0-797.248 0-29.472 0-53.376 23.904-53.376 53.376 0 173.568 0 347.104 0 520.64 301.344 0 602.656 0 904 0 0-173.536 0-347.072 0-520.64 0-29.472-23.904-53.376-53.376-53.376zM964 629.984c-301.344 0-602.656 0-904 0 0 72.192 0 144.416 0 216.608 0 29.472 23.904 53.376 53.376 53.376 47.296 0 94.56 0 141.856 0 29.312 0 57.408-11.68 78.048-32.48 38.944-39.168 77.888-78.336 116.8-117.504 153.504 0 307.008 0 460.512 0 29.472 0 53.376-23.904 53.376-53.376 0.032-22.208 0.032-44.416 0.032-66.624z" />
<glyph unicode="&#xe920;" glyph-name="group" d="M512 457.504c96.768 0 175.264 95.328 175.264 212.832 0 117.568-25.792 212.832-175.264 212.832s-175.232-95.296-175.232-212.832c0-117.536 78.464-212.832 175.232-212.832zM842.624 141.12c-3.264 204.768-30.016 263.136-234.656 300.064 0 0-28.8-36.672-95.968-36.672-67.136 0-95.968 36.672-95.968 36.672-202.432-36.544-230.784-94.016-234.528-293.408-0.288-16.288-0.448-17.152-0.512-15.264 0-3.52 0.032-10.080 0.032-21.536 0 0 48.736-98.176 330.944-98.176 282.24 0 330.976 98.176 330.976 98.176 0 7.36 0 12.48 0.032 15.936-0.032-1.152-0.16 1.12-0.352 14.208zM755.2 495.488c78.624 0 142.304 77.408 142.304 172.864s-20.896 172.896-142.304 172.896c-20.448 0-38.016-2.176-53.12-6.304 28.064-51.68 31.904-114.464 31.904-164.608 0-56.704-15.392-110.912-43.712-155.776 19.456-12.128 41.504-19.072 64.928-19.072zM1023.68 238.56c-2.624 166.304-24.352 213.696-190.56 243.68 0 0-23.392-29.824-77.952-29.824-2.24 0-4.448 0.064-6.592 0.192 34.656-15.616 66.144-37.376 89.408-69.216 40.128-55.040 49.344-128.96 51.264-237.536 111.808 22.048 134.752 68.224 134.752 68.224 0 6.016 0 10.144 0 12.96-0.064-0.992-0.128 0.8-0.32 11.52zM268.8 495.488c23.392 0 45.44 6.944 64.928 19.072-28.32 44.864-43.712 99.040-43.712 155.776 0 50.112 3.84 112.896 31.904 164.608-15.136 4.128-32.672 6.304-53.12 6.304-121.408 0-142.336-77.408-142.336-172.864s63.744-172.896 142.336-172.896zM275.392 452.64c-2.144-0.128-4.352-0.192-6.592-0.192-54.56 0-77.952 29.824-77.952 29.824-166.208-30.016-187.936-77.376-190.592-243.68-0.128-10.752-0.224-12.544-0.256-11.52 0-2.816 0-6.944 0-12.928 0 0 22.912-46.176 134.72-68.256 1.92 108.576 11.136 182.496 51.264 237.536 23.264 31.84 54.752 53.568 89.408 69.216z" />
<glyph unicode="&#xe921;" glyph-name="hourglass" d="M865.152 6.24h-60.224v107.936c0 109.184-59.904 209.568-168.704 282.624-13.536 9.056-21.952 28.672-21.952 51.2s8.416 42.112 21.984 51.2c108.768 73.056 168.672 173.408 168.672 282.624v107.904h60.224c19.392 0 35.136 15.712 35.136 35.136s-15.712 35.136-35.136 35.136h-706.304c-19.424 0-35.136-15.712-35.136-35.136s15.744-35.136 35.136-35.136h60.192v-107.936c0-109.184 59.936-209.536 168.736-282.624 13.504-9.088 21.952-28.672 21.952-51.2 0-22.496-8.416-42.112-21.952-51.232-108.8-73.024-168.704-173.408-168.704-282.592v-107.936h-60.224c-19.392 0-35.136-15.712-35.136-35.136s15.712-35.072 35.136-35.072h706.304c19.392 0 35.136 15.712 35.136 35.136s-15.712 35.104-35.136 35.104zM734.688 6.24h-11.008c-29.184 106.080-172.48 220.864-190.464 234.944-12.48 9.76-29.984 9.76-42.432 0-17.984-14.048-161.312-128.832-190.496-234.944h-10.944v107.936c0 114.752 86.208 189.76 137.6 224.256 33.216 22.304 53.056 63.264 53.056 109.568s-19.84 87.264-53.056 109.536c-51.392 34.496-137.6 109.536-137.6 224.256v107.936h445.344v-107.936c0-114.72-86.24-189.76-137.632-224.256-33.216-22.272-53.056-63.232-53.056-109.536s19.84-87.264 53.056-109.568c51.36-34.496 137.632-109.504 137.632-224.256v-107.936zM512 484.128c19.040 0 34.432 15.424 34.432 34.464v60.896c0 19.040-15.392 34.464-34.432 34.464s-34.464-15.424-34.464-34.464v-60.896c0-19.040 15.424-34.464 34.464-34.464zM512 370.304c-9.056 0-17.952-3.68-24.352-10.048-6.432-6.432-10.080-15.328-10.080-24.384s3.68-17.952 10.080-24.384c6.4-6.368 15.296-10.048 24.352-10.048s17.952 3.68 24.352 10.048c6.432 6.432 10.080 15.328 10.080 24.384s-3.648 17.952-10.080 24.384c-6.4 6.368-15.296 10.048-24.352 10.048z" />
<glyph unicode="&#xe922;" glyph-name="ie" d="M772.864 368.864h248.448c1.952 17.184 2.688 34.752 2.688 52.8 0.128 81.44-21.376 161.44-62.24 231.84 40.928 108.736 39.488 201.024-15.328 256.192-52.064 51.904-191.872 43.456-349.92-26.496-224.928 17.088-429.536-130.272-484.544-349.056 68.096 87.104 139.648 150.272 235.264 196.224-8.672-8.128-59.488-58.56-68-67.040-252.032-252.032-331.68-581.312-246.112-666.88 65.056-65.056 182.912-54.048 318.304 12.192 227.968-115.744 506.592-24.864 622.336 203.136 9.888 19.328 18.368 39.36 25.376 59.872h-250.368c-53.632-99.008-177.376-135.68-276.352-82.048-34.752 18.816-63.264 47.328-82.048 82.048-15.808 29.696-24.064 62.816-24 96.448v0.8h406.496zM366.656 490.976c6.016 103.040 91.264 183.584 194.464 183.712 103.264-0.128 188.512-80.672 194.496-183.712h-388.96zM944.192 858.24c35.328-35.648 34.368-101.248 4.192-183.136-52.128 79.488-127.36 141.088-215.616 176.416 94.976 40.704 172.096 46.080 211.424 6.72zM98.464 12.64c-45.056 44.992-31.488 139.552 26.464 253.44 36.064-100.672 105.728-185.952 197.248-241.184-100.384-45.632-182.624-53.408-223.712-12.256z" />
<glyph unicode="&#xe923;" glyph-name="info" d="M512 960c-282.784 0-512-229.216-512-512 0-282.752 229.216-512 512-512 282.752 0 512 229.248 512 512 0 282.784-229.248 512-512 512zM576 256c0-35.36-28.64-64-64-64-35.328 0-64 28.64-64 64v192.064c0 35.328 28.672 64 64 64 35.36 0 64-28.672 64-64v-192.064zM512 576c-35.328 0-64 28.672-64 64s28.672 64 64 64c35.36 0 64-28.672 64-64s-28.64-64-64-64z" />
<glyph unicode="&#xe924;" glyph-name="last" d="M776 832h-48c-13.248 0-24-10.752-24-24v-286.784l-420.288 305.44c-19.072 11.008-43.36 4.48-54.368-14.56-3.488-6.016-5.312-12.832-5.344-19.808v-688.608c0.16-22.048 18.112-39.744 40.128-39.552 6.88 0 13.6 1.888 19.552 5.248l420.32 305.504v-286.88c0-13.248 10.752-24 24-24h48c13.248 0 24 10.752 24 24v720c0 13.248-10.752 24-24 24z" />
<glyph unicode="&#xe925;" glyph-name="list" d="M0 832h192v-128h-192v128zM320 832h704v-128h-704v128zM0 512h192v-128h-192v128zM320 512h704v-128h-704v128zM0 192h192v-128h-192v128zM320 192h704v-128h-704v128z" />
<glyph unicode="&#xe926;" glyph-name="match" d="M512 960c-282.752 0-512-229.248-512-512 0-282.784 229.248-512 512-512 282.784 0 512 229.216 512 512 0 282.752-229.216 512-512 512zM757.152 224h-110.016v106.24l10.624 217.504-109.984-323.744h-72.512l-110.304 324.064 10.624-217.824v-106.24h-109.664v455.008h144.064l101.568-316.576 101.248 316.576h144.384v-455.008z" />
<glyph unicode="&#xe927;" glyph-name="medal" d="M512 317.76c132.384 0 240.128 107.68 240.128 240.096s-107.744 240.128-240.128 240.128-240.096-107.712-240.096-240.128c0-132.416 107.712-240.096 240.096-240.096zM512 737.952c99.328 0 180.064-80.768 180.064-180.096 0-99.296-80.736-180.096-180.064-180.096-99.296 0-180.064 80.832-180.064 180.096 0 99.328 80.768 180.096 180.064 180.096zM512 50.816l210.080-114.816v295.616c68.672 15.616 120.064 77.12 120.064 150.432 0 25.184 9.824 48.864 27.616 66.656 29.184 29.152 45.184 67.904 45.184 109.12 0 41.248-16 80-45.184 109.12-17.792 17.856-27.616 41.536-27.616 66.72 0 85.12-69.248 154.336-154.304 154.336-25.696 0-49.376 9.536-66.688 26.848-60.16 60.192-158.080 60.192-218.272 0-17.312-17.312-40.992-26.848-66.688-26.848-85.12 0-154.336-69.216-154.336-154.336 0-25.184-9.824-48.864-27.616-66.688-29.152-29.12-45.216-67.872-45.216-109.12 0-41.216 16.064-79.968 45.216-109.12 17.824-17.792 27.616-41.472 27.616-66.656 0-73.312 51.392-134.816 120.064-150.432v-295.648l210.080 114.816zM512 119.264l-150.048-82.048v186.944c15.328-4.32 29.344-12.512 40.928-24.064 29.152-29.12 67.904-45.184 109.12-45.184 41.248 0 80 16.064 109.152 45.184 11.552 11.616 25.632 19.744 40.928 24.064v-186.944l-150.080 82.048zM241.888 382.048c0 41.184-16.064 79.968-45.216 109.12-17.824 17.824-27.616 41.504-27.616 66.688s9.824 48.864 27.616 66.688c29.152 29.152 45.216 67.904 45.216 109.12 0 52 42.304 94.304 94.304 94.304 41.728 0 80.48 15.776 109.12 44.448 18.4 18.368 42.528 27.552 66.688 27.552s48.288-9.184 66.688-27.552c28.64-28.672 67.36-44.448 109.12-44.448 52 0 94.304-42.304 94.304-94.304 0-41.216 16.064-79.968 45.184-109.12 17.824-17.824 27.616-41.504 27.616-66.688s-9.824-48.864-27.616-66.688c-29.12-29.152-45.184-67.936-45.184-109.12 0-52-42.304-94.304-94.304-94.304-41.248 0-80-16.064-109.12-45.184-17.856-17.824-41.504-27.616-66.688-27.616s-48.864 9.824-66.688 27.616c-29.152 29.12-67.904 45.184-109.12 45.184-52 0-94.304 42.304-94.304 94.304z" />
<glyph unicode="&#xe928;" glyph-name="minus" d="M800 512c17.632 0 32-14.304 32-32v-64c0-17.696-14.368-32-32-32h-576c-17.664 0-32 14.304-32 32v64c0 17.696 14.336 32 32 32h576z" />
<glyph unicode="&#xe929;" glyph-name="money-hand" d="M595.968 504.096c-125.696 0-227.936 102.272-227.936 227.968s102.24 227.936 227.936 227.936 227.936-102.24 227.936-227.936c0-125.696-102.24-227.968-227.936-227.968zM595.968 904.032c-94.816 0-171.936-77.152-171.936-171.968s77.12-171.968 171.936-171.968c94.848 0 172 77.152 172 171.968 0 94.784-77.152 171.936-172 171.968v0zM591.968 587.264c-13.664 0-24.768 11.136-24.768 24.8v19.968c-13.024 5.088-25.216 14.112-35.488 26.304-8.8 10.464-7.456 26.144 3.008 34.944 4.512 3.776 10.144 5.824 15.968 5.824 7.328 0 14.24-3.232 18.976-8.832 7.2-8.544 15.328-13.44 22.304-13.44 8.384 0 15.2 6.816 15.2 15.2s-6.816 15.2-15.2 15.2c-35.68 0-64.736 29.056-64.736 64.8 0 26.24 15.936 49.888 39.968 59.84v20.128c0 13.664 11.136 24.8 24.768 24.8 13.696 0 24.8-11.136 24.8-24.8v-19.904c10.016-3.872 19.424-10.016 27.968-18.336 9.856-9.504 10.112-25.216 0.672-35.040-4.736-4.864-11.104-7.552-17.888-7.552-6.496 0-12.64 2.496-17.28 6.976-6.112 5.984-12.48 9.12-18.272 9.12-8.384 0-15.168-6.816-15.168-15.2s6.784-15.2 15.168-15.2c35.712 0 64.8-29.056 64.8-64.768 0-26.24-15.936-49.888-40-59.872v-20.16c0-13.664-11.104-24.8-24.8-24.8zM989.344 538.496c-17.6 14.752-39.936 22.912-62.944 22.912-28.096 0-54.624-11.968-73.184-32.864l-95.328-98.016c-16.288 11.712-36.128 18.816-57.76 18.816h-205.12c-31.328 12.48-64.416 18.784-98.496 18.784-96.736 0-177.632-43.232-224.352-119.2-20.32-0.544-39.36-8.736-53.76-23.2l-118.4-118.656 268.928-271.072 120.672 118.848c14.656 14.656 22.816 34.176 23.040 55.008 0.032 4.032-0.224 8-0.8 11.904l10.304 9.952c6.4 6.208 14.496 9.472 23.456 9.472h249.824c49.664 0 96.8 18.976 132.672 53.376l2.368 2.304 170.496 203.776c34.752 41.12 29.6 102.88-11.616 137.856zM347.072 97.376l-77.632-76.48-184.608 186.016 76.128 76.352c6.208 6.208 15.712 7.328 23.296 2.656 3.232-1.952-6.112 6.528 162.72-162.048 7.584-7.488 7.104-19.488 0.096-26.496zM955.040 439.36l-168.544-201.44c-24.608-23.584-56.928-36.672-91.040-36.672h-249.824c-24.448 0-47.648-9.312-65.248-26.304l-15.936-15.392-147.232 147.232c34.464 64.512 99.008 101.216 179.264 101.216 28.768 0 56.608-5.792 82.72-17.248 2.336-0.992 4.928-1.536 7.52-1.536l213.376-0.032c21.536 0 39.040-17.504 39.040-39.040 0-21.504-17.504-39.008-39.040-39.008h-144.128c-16.608 0-30.080-13.504-30.080-30.080s13.504-30.048 30.080-30.048h144.128c54.816 0 99.2 44.384 99.2 99.168 0 10.944-2.176 21.248-5.44 31.104 89.824 92.352 103.168 105.984 103.776 106.72 13.376 15.808 37.152 17.792 52.992 4.48 15.808-13.408 17.856-37.152 4.416-53.12z" />
<glyph unicode="&#xe92a;" glyph-name="move" d="M1008.992 558.080l-439.296 257.088c-9.376 5.472-20.96 5.536-30.4 0.128s-15.264-15.424-15.296-26.304l-0.064-116.064c-0.544-0.128-0.928-0.224-1.248-0.288-10.976-3.072-22.624-6.432-36.672-10.624-45.632-13.536-92.48-31.104-147.456-55.296-47.744-20.992-94.432-48.064-138.752-80.48-31.712-23.168-61.536-49.888-88.64-79.392-73.792-80.32-114.24-186.944-110.944-292.576 0.576-18.528 2.656-36.288 4.64-51.232 1.952-14.848 14.432-26.016 29.408-26.368 0.224 0 0.448 0 0.672 0 14.688 0 27.328 10.528 29.856 25.056 8.16 46.144 21.216 84.064 39.84 115.904 23.296 39.808 54.912 73.248 91.488 96.672 31.424 20.128 64.64 35.552 101.504 47.232 43.008 13.6 90.464 22.112 144.992 26.048 22.016 1.6 45.728 2.4 74.656 2.528 0.832 0 2.72 0 5.184-0.064l0.064-109.44c0-10.816 5.76-20.8 15.136-26.208 9.312-5.44 20.864-5.472 30.24-0.128l440.8 251.264c9.44 5.376 15.264 15.36 15.328 26.176 0.032 10.88-5.696 20.928-15.040 26.368z" />
<glyph unicode="&#xe92b;" glyph-name="next" d="M255.232 826.72c12.352 7.072 27.52 7.072 39.904 0l473.696-344.352c19.008-10.976 25.504-35.264 14.496-54.208-3.488-6.016-8.512-11.040-14.496-14.528l-473.792-344.32c-19.104-11.008-43.488-4.384-54.432 14.784-3.424 5.952-5.248 12.64-5.312 19.488v688.672c0.032 14.24 7.648 27.328 19.936 34.464z" />
<glyph unicode="&#xe92c;" glyph-name="next-circle" d="M512 960c-282.752 0-512-229.248-512-512s229.248-512 512-512 512 229.248 512 512-229.248 512-512 512zM658.272 358.752l-189.12-189.12-89.248 89.248 189.152 189.12-189.152 189.12 89.248 89.248 278.336-278.368-89.216-89.248z" />
<glyph unicode="&#xe92d;" glyph-name="pencle" d="M636.736 787.456l208.352-208.32-527.296-527.264-208.192 208.32 527.136 527.264zM1003.168 837.696l-92.864 92.864c-35.936 35.904-94.24 35.904-130.24 0l-89.056-88.96 208.352-208.32 103.808 103.808c27.808 27.872 27.808 72.768 0 100.608zM0.576-32.672c-3.808-17.056 11.584-32.32 28.672-28.192l232.128 56.256-208.192 208.352-52.608-236.416z" />
<glyph unicode="&#xe92e;" glyph-name="plus" d="M800 512h-224v224c0 17.696-14.368 32-32 32h-64c-17.664 0-32-14.304-32-32v-224h-224c-17.664 0-32-14.304-32-32v-64c0-17.696 14.336-32 32-32h224v-224c0-17.696 14.336-32 32-32h64c17.632 0 32 14.304 32 32v224h224c17.632 0 32 14.304 32 32v64c0 17.696-14.368 32-32 32z" />
<glyph unicode="&#xe92f;" glyph-name="point" d="M718.784 225.984c-9.376 1.152-17.856-5.6-18.944-14.944-1.088-9.376 5.6-17.888 14.944-18.976 179.488-21.12 275.072-78.048 275.072-111.040 0-46.336-181.792-110.944-477.856-110.944s-477.888 64.608-477.888 110.944c0 32.96 95.584 89.92 275.072 111.040 9.344 1.088 16.032 9.6 14.944 18.976s-9.568 16.16-18.944 14.944c-179.68-21.152-305.184-80.736-305.184-144.928 0-72.096 175.872-145.056 512-145.056s512 72.96 512 145.056c0 64.192-125.536 123.776-305.216 144.928zM508.96 25.472l261.824 378.144c98.208 130.912 84 346.080-30.368 460.48-61.824 61.856-144.032 95.904-231.456 95.904s-169.6-34.048-231.424-95.872c-114.368-114.4-128.576-329.568-30.784-460l262.208-378.656zM512 820.544c101.92 0 184.8-82.944 184.8-184.832s-82.88-184.832-184.8-184.832c-101.952 0-184.832 82.944-184.832 184.832s82.88 184.832 184.832 184.832z" />
<glyph unicode="&#xe930;" glyph-name="prev" d="M788.672 792.32v-688.64c0.128-14.176-7.488-27.328-19.872-34.368-12.256-7.072-27.36-7.072-39.776 0l-473.856 344.32c-18.944 10.976-25.44 35.232-14.496 54.208 3.456 6.016 8.512 11.040 14.528 14.528l473.76 344.32c12.352 7.072 27.52 7.072 39.904 0 12.16-7.104 19.808-20.128 19.808-34.368z" />
<glyph unicode="&#xe931;" glyph-name="prev-circle" d="M0 448c0-282.752 229.248-512 512-512s512 229.248 512 512-229.248 512-512 512-512-229.248-512-512zM276.512 448l278.336 278.368 89.216-89.248-189.12-189.12 189.12-189.12-89.216-89.248-278.336 278.368z" />
<glyph unicode="&#xe932;" glyph-name="print" d="M768 640h128v-64h-128v64zM320 256h384v-64h-384v64zM320 128h384v-64h-384v64zM896 768h-64v64c0 70.688-57.312 128-128 128h-384c-70.688 0-128-57.312-128-128v-64h-64c-70.688 0-128-57.312-128-128v-320c0-70.688 57.312-128 128-128h64v-192c0-35.36 26.368-64 61.792-64h511.968c35.36 0 66.24 28.64 66.24 64v192h64c70.688 0 128 57.312 128 128v320c0 70.688-57.312 128-128 128zM256 832c0 35.264 28.704 64 64 64h384c35.36 0 64-28.736 64-64v-64h-512v64zM768 0h-512v320h512v-320zM960 320c0-35.36-28.64-64-64-64h-64v64h64v64h-768v-64h64v-64h-64c-35.296 0-64 28.672-64 64v320c0 35.264 28.704 64 64 64h768c35.36 0 64-28.736 64-64v-320z" />
<glyph unicode="&#xe933;" glyph-name="proposal" d="M896 672v288h-768v-288h-128v-736h1024v736h-128zM192 896h640v-323.616l-320-274.24-320 274.24v323.616zM960 0h-896v597.888l448-384 448 384v-597.888zM768 768h-512v64h512v-64zM640 640h-384v64h384v-64z" />
<glyph unicode="&#xe934;" glyph-name="reject" d="M512 960c-282.752 0-512-229.248-512-512 0-282.784 229.248-512 512-512 282.784 0 512 229.216 512 512 0 282.752-229.216 512-512 512zM701.696 224h-109.056l-161.248 283.136v-283.136h-109.696v455.008h109.696l160.928-283.136v283.136h109.376v-455.008z" />
<glyph unicode="&#xe935;" glyph-name="request" d="M510.016 556c22.080 0 40-17.92 40-40s-17.92-40-40-40-40 17.92-40 40 17.888 40 40 40zM650.016 516c0-22.080 17.92-40 40-40s40 17.92 40 40-17.92 40-40 40-40-17.92-40-40zM290.016 516c0-22.080 17.92-40 40-40s40 17.92 40 40-17.92 40-40 40-40-17.92-40-40zM988.8 140.864c46.816-46.816 46.816-122.944 0.032-169.728-23.392-23.392-54.112-35.104-84.832-35.104-30.752 0-61.472 11.68-84.864 35.104l-219.552 219.104c-4.672 4.64-8.096 10.368-10.016 16.672l-47.84 157.44c-4.224 13.952-0.544 29.12 9.664 39.552s25.248 14.496 39.328 10.624l161.44-44.736c6.624-1.824 12.672-5.376 17.568-10.24l219.072-218.688zM663.2 239.776l148.192-147.84 56.576 56.576-147.328 147.040-81.216 22.496 23.776-78.272zM932.288 84.288l-7.712 7.712-56.576-56.576 7.68-7.68c15.616-15.616 40.992-15.616 56.608-0.032s15.584 40.96 0 56.576zM534.24 131.104c-7.36-0.32-14.88-0.48-22.24-0.48-64.32 0-126.24 11.968-184.064 35.552-9.824 4.032-20.864 3.968-30.688-0.16l-182.112-76.896 61.376 145.376c6.016 14.208 3.328 30.624-6.976 42.144-58.592 65.792-89.536 144.544-89.536 227.648 0 207.168 193.824 375.712 432 375.712s432-168.544 432-375.712c0-49.12-12.064-98.432-35.872-146.56-9.792-19.808-1.664-43.808 18.112-53.632 19.808-9.76 43.808-1.664 53.632 18.112 29.248 59.328 44.128 120.544 44.128 182.080 0 251.296-229.696 455.712-512 455.712s-512-204.416-512-455.712c0-94.848 32.16-184.672 93.248-261.248l-90.112-213.504c-6.304-15.008-2.944-32.32 8.608-43.84 7.648-7.648 17.92-11.712 28.288-11.712 5.248 0 10.56 1.024 15.552 3.168l257.856 108.832c62.912-23.488 129.632-35.36 198.592-35.36 8.544 0 17.184 0.192 25.76 0.576 22.048 0.928 39.2 19.616 38.176 41.696-0.96 22.048-19.68 39.232-41.728 38.208z" />
<glyph unicode="&#xe936;" glyph-name="reset" d="M638.24 256l192.256 256 193.504-256h-128v-64c0-105.888-86.112-192-192-192h-384c-105.888 0-192 86.112-192 192v64h128v-64c0-35.264 28.736-64 64-64h384c35.264 0 64 28.736 64 64v64h-129.76zM385.76 640l-192.256-256-193.504 256h128v64c0 105.888 86.112 192 192 192h384c105.888 0 192-86.112 192-192v-64h-128v64c0 35.264-28.736 64-64 64h-384c-35.264 0-64-28.736-64-64v-64h129.76z" />
<glyph unicode="&#xe937;" glyph-name="script" d="M897.856 960h-593.632c-69.568 0-126.144-56.608-126.144-126.144v-586.208h-178.080v-185.504c0-69.536 56.608-126.144 126.144-126.144h593.632c69.568 0 126.112 56.608 126.112 126.144v586.208h178.112v185.504c0 69.536-56.608 126.144-126.144 126.144zM126.144 10.176c-28.672 0-51.968 23.328-51.968 51.968v111.296h519.424v-111.296c0-18.496 4-36.096 11.2-51.968h-478.656zM771.712 62.144c0-28.672-23.328-51.968-51.936-51.968-28.672 0-51.968 23.328-51.968 51.968v185.504h-415.52v586.208c0 28.64 23.328 51.936 51.936 51.936h479.008c-7.232-15.904-11.488-33.376-11.488-51.936v-771.712zM949.824 722.56h-103.904v111.296c0 28.64 23.328 51.936 51.936 51.936 28.672 0 51.968-23.296 51.968-51.936v-111.296z" />
<glyph unicode="&#xe938;" glyph-name="search" d="M1005.248 46.464l-252.928 252.864c51.808 70.944 79.68 156.48 79.68 244.256 0 229.76-186.24 416-416 416s-416-186.24-416-416 186.24-416 416-416c92.16 0 177.12 30.368 246.016 81.12l252.736-252.736c24.864-24.896 65.248-25.024 90.24-0.256 0.128 0.128 0.128 0.256 0.256 0.256 24.992 24.992 24.992 65.376 0.128 90.368-0.064 0-0.128 0.064-0.128 0.128zM96 543.584c0 176.448 143.52 320 320 320 176.512 0 320-143.552 320-320s-143.488-320-320-320c-176.48 0-320 143.584-320 320z" />
<glyph unicode="&#xe939;" glyph-name="settings" d="M971.552 555.456l-71.872 12.192c-7.456 24.192-17.088 47.488-28.864 69.76l42.368 59.264c17.984 25.248 15.2 59.68-6.848 81.504l-63.744 63.744c-12 11.968-27.808 18.624-44.704 18.624-13.248 0-25.888-4.064-36.576-11.776l-59.456-42.368c-23.136 12.192-47.296 22.24-72.32 29.728l-11.968 71.040c-5.152 30.592-31.488 52.832-62.464 52.832h-90.048c-31.040 0-57.344-22.24-62.464-52.832l-12.416-72.704c-23.968-7.488-47.296-17.344-69.536-29.344l-58.816 42.336c-10.688 7.744-23.52 11.808-36.768 11.808-16.896 0-32.928-6.656-44.704-18.624l-64-63.776c-21.792-21.792-24.8-56.224-6.848-81.504l42.784-60.128c-11.744-22.432-21.152-45.76-28.448-69.952l-71.040-11.968c-30.56-5.12-52.8-31.392-52.8-62.432v-90.048c0-31.008 22.208-57.312 52.8-62.464l72.736-12.416c7.456-23.936 17.312-47.264 29.28-69.504l-42.112-58.624c-17.984-25.248-15.2-59.68 6.848-81.504l63.744-63.744c11.968-11.968 27.808-18.592 44.672-18.592 13.28 0 25.92 4.064 36.608 11.744l60.128 42.784c21.6-11.328 44.256-20.544 67.584-27.808l11.968-71.872c5.12-30.592 31.424-52.8 62.464-52.8h90.24c31.040 0 57.344 22.208 62.464 52.8l12.192 71.872c24.192 7.488 47.488 17.12 69.76 28.864l59.264-42.336c10.688-7.68 23.52-11.744 36.768-11.744v0c16.896 0 32.736 6.624 44.704 18.592l63.744 63.744c21.824 21.824 24.8 56.256 6.848 81.504l-42.304 59.456c11.744 22.464 21.6 45.792 28.864 69.728l71.872 12c30.56 5.12 52.8 31.424 52.8 62.464v90.016c0.48 31.040-21.792 57.344-52.384 62.464zM966.656 402.976c0-2.784-1.952-5.152-4.704-5.568l-89.856-15.008c-11.328-1.92-20.32-10.24-23.104-21.152-8.128-31.424-20.544-61.632-37.216-89.632-5.792-9.856-5.344-22.016 1.28-31.456l52.832-74.432c1.504-2.112 1.28-5.344-0.672-7.264l-63.744-63.744c-1.504-1.504-2.976-1.728-4.064-1.728-1.28 0-2.336 0.448-3.2 1.056l-74.24 52.832c-9.184 6.624-21.6 7.072-31.424 1.28-28.032-16.672-58.176-29.088-89.632-37.216-11.136-2.784-19.456-11.968-21.184-23.104l-15.2-89.856c-0.416-2.784-2.784-4.704-5.568-4.704h-90.016c-2.784 0-5.152 1.952-5.568 4.704l-15.008 89.856c-1.92 11.328-10.24 20.32-21.152 23.104-30.592 7.904-60.128 20.096-87.712 35.936-4.512 2.56-9.632 3.84-14.528 3.84-5.792 0-11.776-1.728-16.672-5.344l-74.88-53.248c-1.056-0.672-2.112-1.088-3.232-1.088-0.832 0-2.56 0.224-4.064 1.728l-63.744 63.744c-1.92 1.952-2.112 4.896-0.64 7.296l52.64 73.792c6.624 9.408 7.072 21.856 1.28 31.648-16.672 27.808-29.536 57.984-37.664 89.44-2.944 10.912-11.936 19.264-23.040 21.152l-90.496 15.392c-2.784 0.448-4.672 2.784-4.672 5.568v90.080c0 2.784 1.92 5.12 4.672 5.568l89.216 14.976c11.328 1.952 20.544 10.272 23.328 21.408 7.904 31.424 20.096 61.824 36.576 89.856 5.792 9.824 5.152 22.016-1.504 31.232l-53.28 74.816c-1.504 2.144-1.28 5.344 0.64 7.296l63.712 63.712c1.504 1.504 3.008 1.728 4.128 1.728 1.28 0 2.336-0.448 3.2-1.056l73.824-52.64c9.408-6.624 21.824-7.072 31.648-1.28 27.808 16.672 57.984 29.536 89.408 37.664 10.912 3.008 19.264 11.968 21.184 23.104l15.392 90.496c0.416 2.784 2.784 4.672 5.568 4.672h90.016c2.784 0 5.152-1.92 5.568-4.672l15.008-89.216c1.92-11.328 10.24-20.544 21.376-23.328 32.32-8.128 63.104-20.736 91.776-37.664 9.856-5.792 22.016-5.344 31.424 1.28l73.792 53.056c1.088 0.64 2.144 1.056 3.232 1.056 0.864 0 2.56-0.224 4.064-1.728l63.744-63.744c1.952-1.92 2.144-4.896 0.672-7.264l-52.896-74.208c-6.624-9.184-7.072-21.6-1.28-31.424 16.672-28.032 29.088-58.176 37.216-89.632 2.784-11.136 11.968-19.456 23.104-21.184l89.856-15.2c2.784-0.416 4.704-2.784 4.704-5.568v-90.016h-0.224zM512.096 669.056c-121.952 0-220.96-99.040-220.96-220.96s99.040-220.96 220.96-220.96c121.92 0 220.96 99.040 220.96 220.96s-99.040 220.96-220.96 220.96zM512.096 284.864c-90.048 0-163.232 73.152-163.232 163.232s73.152 163.232 163.232 163.232c90.048 0 163.2-73.152 163.2-163.232s-73.152-163.232-163.2-163.232z" />
<glyph unicode="&#xe93a;" glyph-name="time" d="M512 960c-282.752 0-512-229.248-512-512s229.248-512 512-512 512 229.248 512 512-229.248 512-512 512zM511.936 0c-247.456 0-448 200.64-448 448.128s200.672 448 448.128 448v0c247.424 0 448.064-200.64 448-448.128s-200.704-448-448.128-448zM803.36 311.68l-259.36 154.496v237.824c0 17.664-14.336 32-32 32s-32-14.336-32-32v-256c0-1.344 0.608-2.496 0.768-3.84 0.256-2.144 0.576-4.224 1.248-6.272 0.736-1.984 1.632-3.776 2.656-5.568 1.056-1.728 1.984-3.392 3.328-4.928 1.408-1.696 3.040-2.976 4.704-4.32 1.12-0.8 1.76-1.92 2.976-2.688l274.944-163.776c15.136-8.992 34.816-4 43.872 11.136 8.992 15.328 4 34.88-11.136 43.936z" />
<glyph unicode="&#xe93b;" glyph-name="trash-can" d="M200.608-41.248c0-12.576 10.176-22.752 22.752-22.752h577.28c12.576 0 22.752 10.176 22.752 22.752v736.864h-622.784v-736.864zM639.904 570.208h85.28v-495.808h-85.28v495.808zM469.344 570.208h85.28v-495.808h-85.28v495.808zM298.784 570.208h85.28v-495.808h-85.28v495.808zM703.68 937.248c0 12.576-10.176 22.752-22.752 22.752h-337.888c-12.576 0-22.72-10.176-22.72-22.752v-110.176h-159.008c-12.576 0-22.72-10.176-22.72-22.752v-57.504c0-12.576 10.144-22.72 22.72-22.72h701.344c12.576 0 22.752 10.176 22.752 22.72v57.504c0 12.576-10.176 22.752-22.752 22.752h-158.976v110.176zM618.4 831.744h-212.8v42.976h212.8v-42.976z" />
<glyph unicode="&#xe93c;" glyph-name="up" d="M133.312 191.264c-7.072 12.352-7.072 27.488 0 39.904l344.32 473.664c10.976 19.008 35.264 25.504 54.208 14.496 6.016-3.488 11.040-8.544 14.528-14.496l344.32-473.792c11.008-19.136 4.384-43.488-14.784-54.432-5.984-3.424-12.672-5.248-19.456-5.312h-688.672c-14.272 0.032-27.328 7.648-34.464 19.968z" />
<glyph unicode="&#xe93d;" glyph-name="upload" d="M384 320h256v320h128l-255.936 320-256.064-320h128v-320zM896 256v-192h-768v192h-128v-256c0-35.36 28.672-64 64-64h896c35.36 0 64 28.64 64 64v256h-128z" />
<glyph unicode="&#xe93e;" glyph-name="user" d="M768 704c0-141.385-114.615-256-256-256s-256 114.615-256 256c0 141.385 114.615 256 256 256s256-114.615 256-256zM1024-64v128c0 170.88-134.24 309.12-302.752 318.24-60.256-39.232-132-62.24-209.248-62.24s-148.96 23.008-209.216 62.24c-168.512-9.12-302.784-147.36-302.784-318.24v-128h1024z" />
<glyph unicode="&#xe93f;" glyph-name="warning" d="M1010.848 154.976l-420.096 696.576c-16.736 27.552-46.496 44.416-78.752 44.48-32.224-0.064-62.048-16.896-78.72-44.48l-420.128-696.576c-17.088-28.384-17.536-71.744-1.344-100.512 16.256-28.864 47.040-54.496 80.192-54.496h840c33.184 0 63.872 25.632 80.128 54.496 16.288 28.768 15.776 72.128-1.28 100.512zM954.016 85.92c-4.384-8-12.864-21.952-22.016-21.952h-840c-9.152 0-17.6 13.952-22.144 21.952-4.448 9.568-4.32 20.64 0.384 30.048l420.032 698.816c4.576 7.648 12.896 13.44 21.728 13.44s17.152-4.16 21.728-11.712l420.064-700.928c4.736-7.616 4.864-21.792 0.224-29.664zM512.32 303.744c14.784 0 35.936 8.128 35.936 27.264 0 73.632 8.64 179.328 8.64 252.992 0 24.128-20.352 37.76-44.48 37.76-25.376 0-45.184-13.632-45.184-37.76 0-73.6 8.672-179.36 8.672-252.992-0.064-19.136 16.576-27.264 36.416-27.264zM512.96 261.12c-26.304 0-47.616-21.376-47.616-47.616 0.032-26.304 21.312-47.616 47.616-47.616 25.888 0.736 46.592 21.76 46.976 47.616-0.192 25.984-21.024 47.072-46.976 47.616z" />
</font>
</defs>
</svg>
