<svg xmlns="http://www.w3.org/2000/svg" xmlns:xlink="http://www.w3.org/1999/xlink" width="300" height="50" viewBox="0 0 300 50">
<g fill="#0091EA">
<path d="M295.395 11.615h-2.771c-4.26 0-6.814 2.131-7.668 3.834h-.285v-2.982c0-.641-.281-.852-.781-.852h-2.059c-.426 0-.711.211-.711.852V46.98c0 .639.285.852.711.852h2.059c.5 0 .781-.213.781-.852V22.692c0-4.828 2.77-7.881 7.387-7.881h3.338c.568.07.779-.213.779-.709v-1.707c-.001-.497-.212-.78-.78-.78zM262.522 11.615h-6.104c-6.109 0-9.941 3.834-9.941 10.082v16.05c0 6.25 3.832 10.084 9.941 10.084h14.842c.637 0 .779-.213.779-.781v-1.633c0-.5-.143-.781-.779-.781h-14.561c-4.4 0-6.674-2.559-6.674-6.959v-5.469c0-.426.143-.639.639-.639h21.02c.641 0 .854-.213.854-.854v-9.019c0-6.247-3.907-10.081-10.016-10.081zm6.465 16.475c0 .426-.143.637-.639.637h-17.684c-.496 0-.639-.211-.639-.637v-6.321c0-4.402 2.273-6.959 6.674-6.959h5.611c4.402 0 6.676 2.557 6.676 6.959l.001 6.321zM240.17 44.635h-2.77c-4.404 0-7.029-2.416-7.029-6.816v-22.37c0-.426.139-.639.639-.639h8.449c.57 0 .781-.213.781-.711v-1.705c0-.496-.211-.779-.781-.779h-8.449c-.5 0-.639-.213-.639-.641v-5.75c0-.641-.285-.854-.781-.854h-2.059c-.5 0-.781.213-.781.854v5.75c0 .428-.145.641-.639.641h-4.334c-.639 0-.781.283-.781.779v1.705c0 .498.143.711.781.711h4.334c.494 0 .639.213.639.639V37.96c0 6.25 4.26 9.871 10.367 9.871h3.053c.57 0 .781-.213.781-.779v-1.637c.001-.497-.21-.78-.781-.78zM210.209 29.225c-2.957-1.184-5.918-2.367-8.875-3.552-2.77-.994-4.473-2.271-4.473-5.041v-1.633c0-1.988 1.631-4.262 5.818-4.262h11.15c.641 0 .783-.213.783-.709v-1.635c0-.496-.215-.779-.783-.779h-11.506c-6.459 0-9.158 3.123-9.158 8.309 0 4.543 1.846 6.815 6.674 8.663l8.879 3.41c3.125 1.135 3.977 3.264 3.977 6.035v1.703c0 3.338-2.131 4.971-6.391 4.971h-12.002c-.637 0-.781.211-.781.711v1.633c0 .496.145.781.781.781h12.355c6.535 0 9.73-2.484 9.73-8.734.002-4.474-.781-8.096-6.178-9.871zM184.583 11.615h-15.055c-6.105 0-9.941 3.834-9.941 10.082v16.05c0 6.25 3.836 10.084 9.941 10.084h4.547c4.047 0 6.391-1.705 7.385-3.691h.283v2.84c0 .639.283.852.783.852h2.057c.498 0 .711-.213.711-.852V12.467c-.001-.639-.213-.852-.711-.852zm-2.84 26.061c0 4.473-2.84 6.959-7.314 6.959h-4.615c-4.332 0-6.676-2.559-6.676-7.029V21.839c0-4.473 2.344-7.029 6.676-7.029h11.221c.564 0 .709.213.709.639l-.001 22.227zM151.229 2.169h-3.834c-.355 0-.568.213-.641.426-4.449 10.393-8.9 20.783-13.35 31.177h-.285c-4.449-10.394-8.898-20.784-13.35-31.177-.07-.213-.283-.426-.639-.426h-3.834c-.428 0-.711.213-.711.852v43.958c0 .709.283.852.711.852h2.059c.496 0 .709-.213.709-.852V7.566h.285l12.781 29.54c.213.57.428.783.994.783h2.344c.568 0 .781-.213 1.064-.783 4.189-9.822 8.381-19.646 12.57-29.47h.283v39.343c0 .639.285.852.781.852h2.061c.428 0 .709-.213.709-.852V3.021c.002-.639-.279-.852-.707-.852z"/>
</g>
<g fill="#0D256D">
<path d="M11.567 8.205h11.451c1.354 0 2.246-.42 3.106-1.465l2.137-2.594c.648-.789.088-1.977-.933-1.977H5.033c-.852 0-1.207.283-1.207 1.207v43.247c0 .922.355 1.207 1.207 1.207h22.295c1.021 0 1.581-1.188.933-1.975l-2.137-2.594c-.86-1.045-1.753-1.467-3.106-1.467H11.567c-.568 0-.853-.215-.853-.783V28.37c0-.496.284-.709.853-.709h10.865c.923 0 1.277-.426 1.277-1.207v-3.622c0-.852-.354-1.207-1.277-1.207H11.567c-.568 0-.853-.213-.853-.711v-12c.001-.495.285-.709.853-.709zM71.971 16.515v-2.203c0-4.402 1.562-6.107 5.681-6.107h4.475c4.048 0 5.68 1.635 5.68 5.682v.924c0 .922.427 1.205 1.208 1.205h4.544c.781 0 1.207-.283 1.207-1.205v-1.563c0-6.959-4.189-11.078-11.148-11.078h-7.527c-6.888 0-11.078 4.119-11.078 11.078v2.982c0 16.972 23.293 8.096 23.293 18.036v1.635c0 4.189-1.704 5.895-5.752 5.895h-4.9c-4.049 0-5.681-1.635-5.681-5.613v-1.275c0-.922-.427-1.209-1.208-1.209h-4.544c-.782 0-1.208.287-1.208 1.209v1.846c0 6.959 4.262 11.078 11.15 11.078h7.953c6.888 0 11.076-4.119 11.076-11.078v-2.768c-.002-16.904-23.221-8.809-23.221-17.471zM59.126 41.653H42.651c-.568 0-.853-.213-.853-.711V3.377c0-.924-.354-1.207-1.208-1.207h-4.473c-.852 0-1.207.283-1.207 1.207v43.247c0 .922.355 1.207 1.207 1.207h23.008c.924 0 1.207-.426 1.207-1.207v-3.693c.001-.78-.282-1.278-1.206-1.278z"/>
</g>
</svg>